<svg height="512pt" viewBox="0 0 512 512" width="512pt" xmlns="http://www.w3.org/2000/svg"><path d="m512 256c0 68.378906-26.628906 132.671875-74.980469 181.019531-48.347656 48.351563-112.640625 74.980469-181.019531 74.980469s-132.671875-26.628906-181.019531-74.980469c-48.351563-48.347656-74.980469-112.640625-74.980469-181.019531s26.628906-132.671875 74.980469-181.019531c48.347656-48.351563 112.640625-74.980469 181.019531-74.980469s132.671875 26.628906 181.019531 74.980469c48.351563 48.347656 74.980469 112.640625 74.980469 181.019531zm0 0" fill="#ffe171"/><path d="m512 256c0 68.378906-26.628906 132.671875-74.980469 181.019531-48.347656 48.351563-112.640625 74.980469-181.019531 74.980469v-512c68.378906 0 132.671875 26.628906 181.019531 74.980469 48.351563 48.347656 74.980469 112.640625 74.980469 181.019531zm0 0" fill="#ffd300"/><path d="m227.53125 190.332031h-30c0-14.152343-11.515625-25.667969-25.667969-25.667969-14.152343 0-25.667969 11.515626-25.667969 25.667969h-30c0-30.695312 24.972657-55.667969 55.667969-55.667969 30.695313 0 55.667969 24.976563 55.667969 55.667969zm0 0" fill="#b26d3c"/><path d="m395.804688 190.332031h-30c0-14.152343-11.515626-25.667969-25.667969-25.667969-14.152344 0-25.667969 11.515626-25.667969 25.667969h-30c0-30.695312 24.972656-55.667969 55.667969-55.667969 30.695312 0 55.667969 24.976563 55.667969 55.667969zm0 0" fill="#7a3d06"/><path d="m340.136719 269.710938s77.5625 33.375 72.753906 48.800781c-20.832031 66.835937-83.285156 115.488281-156.890625 115.488281-73.425781 0-135.753906-48.414062-156.738281-114.996094-4.90625-15.570312 72.601562-49.292968 72.601562-49.292968zm0 0" fill="#f95858"/><path d="m340.136719 269.710938s77.5625 33.375 72.753906 48.800781c-20.832031 66.835937-83.285156 115.488281-156.890625 115.488281v-164.289062zm0 0" fill="#ea1b5f"/><path d="m420.289062 254.710938v15c0 17.167968-2.648437 33.71875-7.558593 49.289062h-313.460938c-4.910156-15.570312-7.558593-32.121094-7.558593-49.289062v-15zm0 0" fill="#dcf3ff"/><path d="m420.289062 254.710938v15c0 17.167968-2.648437 33.71875-7.558593 49.289062h-156.730469v-64.289062zm0 0" fill="#b0e2fa"/></svg>