<svg height="512pt" viewBox="0 0 512 512" width="512pt" xmlns="http://www.w3.org/2000/svg"><path d="m512 256c0 68.378906-26.628906 132.671875-74.980469 181.019531-11.808593 11.808594-24.578125 22.332031-38.121093 31.480469-29.539063 19.949219-62.789063 33.398438-97.957032 39.589844-14.691406 2.589844-29.710937 3.910156-44.941406 3.910156s-30.25-1.320312-44.941406-3.910156c-35.167969-6.191406-68.417969-19.640625-97.957032-39.589844-13.542968-9.148438-26.3125-19.671875-38.121093-31.480469-48.351563-48.347656-74.980469-112.640625-74.980469-181.019531s26.628906-132.671875 74.980469-181.019531c48.347656-48.351563 112.640625-74.980469 181.019531-74.980469s132.671875 26.628906 181.019531 74.980469c48.351563 48.347656 74.980469 112.640625 74.980469 181.019531zm0 0" fill="#ffe171"/><path d="m512 256c0 68.378906-26.628906 132.671875-74.980469 181.019531-48.347656 48.351563-112.640625 74.980469-181.019531 74.980469v-512c68.378906 0 132.671875 26.628906 181.019531 74.980469 48.351563 48.347656 74.980469 112.640625 74.980469 181.019531zm0 0" fill="#ffd300"/><path d="m323.710938 333.28125-21.199219 21.21875c-12.433594-12.421875-28.941407-19.261719-46.511719-19.261719-17.480469 0-33.929688 6.78125-46.339844 19.089844l-21.121094-21.296875c18.0625-17.921875 42.019532-27.792969 67.460938-27.792969 25.578125 0 49.621094 9.960938 67.710938 28.042969zm0 0" fill="#b26d3c"/><path d="m323.710938 333.28125-21.199219 21.21875c-12.433594-12.421875-28.941407-19.261719-46.511719-19.261719v-30c25.578125 0 49.621094 9.960938 67.710938 28.042969zm0 0" fill="#7a3d06"/><path d="m211.058594 174v334.089844c-35.167969-6.191406-68.417969-19.640625-97.957032-39.589844v-294.5zm0 0" fill="#4cc4ff"/><path d="m398.898438 174v294.5c-29.539063 19.949219-62.789063 33.398438-97.957032 39.589844v-334.089844zm0 0" fill="#169eff"/><path d="m272.957031 159h153.925781v30h-153.925781zm0 0" fill="#7a3d06"/><path d="m85.117188 159h153.925781v30h-153.925781zm0 0" fill="#b26d3c"/></svg>