<svg height="512pt" viewBox="0 0 512 512" width="512pt" xmlns="http://www.w3.org/2000/svg"><path d="m512 256c0 68.378906-26.628906 132.671875-74.980469 181.019531-48.347656 48.351563-112.640625 74.980469-181.019531 74.980469s-132.671875-26.628906-181.019531-74.980469c-48.351563-48.347656-74.980469-112.640625-74.980469-181.019531s26.628906-132.671875 74.980469-181.019531c48.347656-48.351563 112.640625-74.980469 181.019531-74.980469s132.671875 26.628906 181.019531 74.980469c48.351563 48.347656 74.980469 112.640625 74.980469 181.019531zm0 0" fill="#ffe171"/><path d="m512 256c0 68.378906-26.628906 132.671875-74.980469 181.019531-48.347656 48.351563-112.640625 74.980469-181.019531 74.980469v-512c68.378906 0 132.671875 26.628906 181.019531 74.980469 48.351563 48.347656 74.980469 112.640625 74.980469 181.019531zm0 0" fill="#ffd300"/><path d="m206.316406 145.726562-33.640625 33.640626-33.640625-33.640626-21.210937 21.214844 33.636719 33.636719-33.636719 33.640625 21.210937 21.214844 33.640625-33.640625 33.640625 33.640625 21.210938-21.214844-33.640625-33.640625 33.640625-33.636719zm0 0" fill="#b26d3c"/><path d="m394.175781 166.941406-21.210937-21.214844-33.640625 33.640626-33.640625-33.640626-21.210938 21.214844 33.640625 33.636719-33.640625 33.640625 21.210938 21.214844 33.640625-33.640625 33.640625 33.640625 21.210937-21.214844-33.636719-33.640625zm0 0" fill="#7a3d06"/><path d="m274.382812 336.5v39.730469c0 32.40625 26.363282 58.769531 58.769532 58.769531 32.410156 0 58.773437-26.363281 58.773437-58.769531v-39.730469zm0 0" fill="#ea1b5f"/><path d="m93.703125 311.417969h324.59375v30h-324.59375zm0 0" fill="#b26d3c"/><path d="m256 311.417969h162.296875v30h-162.296875zm0 0" fill="#7a3d06"/></svg>