<svg height="512pt" viewBox="0 0 512 512" width="512pt" xmlns="http://www.w3.org/2000/svg"><path d="m512 256c0 68.378906-26.628906 132.671875-74.980469 181.019531-48.347656 48.351563-112.640625 74.980469-181.019531 74.980469s-132.671875-26.628906-181.019531-74.980469c-48.351563-48.347656-74.980469-112.640625-74.980469-181.019531s26.628906-132.671875 74.980469-181.019531c48.347656-48.351563 112.640625-74.980469 181.019531-74.980469s132.671875 26.628906 181.019531 74.980469c48.351563 48.347656 74.980469 112.640625 74.980469 181.019531zm0 0" fill="#ffe171"/><path d="m512 256c0 68.378906-26.628906 132.671875-74.980469 181.019531-48.347656 48.351563-112.640625 74.980469-181.019531 74.980469v-512c68.378906 0 132.671875 26.628906 181.019531 74.980469 48.351563 48.347656 74.980469 112.640625 74.980469 181.019531zm0 0" fill="#ffd300"/><path d="m381.417969 253.84375-103.203125-59.585938 103.203125-59.585937 15 25.980469-58.203125 33.605468 58.203125 33.605469zm0 0" fill="#7a3d06"/><path d="m129.730469 253.84375-15-25.980469 58.207031-33.605469-58.207031-33.605468 15-25.980469 103.207031 59.585937zm0 0" fill="#b26d3c"/><path d="m393.339844 347.210938c0 28.738281-23.378906 52.117187-52.128906 52.117187h-170.359376c-28.742187 0-52.121093-23.378906-52.121093-52.117187 0-28.742188 23.378906-52.132813 52.121093-52.132813h170.359376c28.75 0 52.128906 23.390625 52.128906 52.132813zm0 0" fill="#f95858"/><path d="m393.339844 347.210938c0 28.738281-23.378906 52.117187-52.128906 52.117187h-85.210938v-104.25h85.210938c28.75 0 52.128906 23.390625 52.128906 52.132813zm0 0" fill="#ea1b5f"/></svg>