<svg height="511pt" viewBox="0 1 511 511.999" width="511pt" xmlns="http://www.w3.org/2000/svg"><path d="m512.121094 255.8125c0 68.328125-26.609375 132.570312-74.925782 180.882812-48.3125 48.316407-112.554687 74.925782-180.886718 74.925782-68.328125 0-132.570313-26.609375-180.882813-74.925782-48.316406-48.3125-74.925781-112.554687-74.925781-180.882812 0-68.332031 26.609375-132.574219 74.925781-180.886719 48.3125-48.316406 112.554688-74.925781 180.882813-74.925781 68.332031 0 132.574218 26.609375 180.886718 74.925781 48.316407 48.3125 74.925782 112.554688 74.925782 180.886719zm0 0" fill="#ffe171"/><path d="m512.121094 255.8125c0 68.328125-26.609375 132.570312-74.925782 180.882812-48.3125 48.316407-112.554687 74.925782-180.886718 74.925782v-511.621094c68.332031 0 132.574218 26.609375 180.886718 74.925781 48.316407 48.3125 74.925782 112.554688 74.925782 180.886719zm0 0" fill="#ffd300"/><path d="m430.28125 384.019531-39.394531-59.660156-12.507813 8.257813-47 43.148437-65.671875 31.246094-12.507812 8.257812 39.394531 59.664063c12.140625 18.386718 30.714844 30.949218 52.304688 35.363281 5.566406 1.140625 11.15625 1.703125 16.707031 1.703125 15.988281 0 31.640625-4.667969 45.289062-13.679688 18.386719-12.140624 30.949219-30.71875 35.367188-52.304687 4.414062-21.589844.160156-43.605469-11.980469-61.996094zm0 0" fill="#ea1b5f"/><path d="m325.253906 392.277344 25.015625-16.515625 31.046875 47.023437-25.015625 16.515625zm0 0" fill="#a90943"/><path d="m227.859375 209.832031h-29.976563c0-14.144531-11.503906-25.648437-25.648437-25.648437-14.140625 0-25.648437 11.503906-25.648437 25.648437h-29.976563c0-30.671875 24.953125-55.625 55.625-55.625s55.625 24.953125 55.625 55.625zm0 0" fill="#b26d3c"/><path d="m396.007812 209.832031h-29.976562c0-14.144531-11.503906-25.648437-25.648438-25.648437-14.140624 0-25.648437 11.503906-25.648437 25.648437h-29.976563c0-30.671875 24.953126-55.625 55.625-55.625 30.671876 0 55.625 24.953125 55.625 55.625zm0 0" fill="#7a3d06"/><path d="m415.242188 310.449219c-11.960938 32.058593-33.113282 59.476562-61.164063 79.300781-28.699219 20.277344-62.515625 31-97.769531 31s-69.066406-10.722656-97.765625-31c-28.050781-19.824219-49.203125-47.242188-61.164063-79.300781l28.078125-10.492188c20.273438 54.320313 72.867188 90.8125 130.851563 90.8125 57.988281 0 110.578125-36.492187 130.855468-90.8125zm0 0" fill="#b26d3c"/><path d="m415.242188 310.449219c-11.960938 32.058593-33.113282 59.476562-61.164063 79.300781-28.699219 20.277344-62.515625 31-97.769531 31v-29.980469c57.988281 0 110.578125-36.492187 130.855468-90.8125zm0 0" fill="#7a3d06"/></svg>