<svg height="512pt" viewBox="0 0 512 512" width="512pt" xmlns="http://www.w3.org/2000/svg"><path d="m512 256c0 68.378906-26.628906 132.671875-74.980469 181.019531-48.347656 48.351563-112.640625 74.980469-181.019531 74.980469s-132.671875-26.628906-181.019531-74.980469c-48.351563-48.347656-74.980469-112.640625-74.980469-181.019531s26.628906-132.671875 74.980469-181.019531c48.347656-48.351563 112.640625-74.980469 181.019531-74.980469s132.671875 26.628906 181.019531 74.980469c48.351563 48.347656 74.980469 112.640625 74.980469 181.019531zm0 0" fill="#ffe171"/><path d="m512 256c0 68.378906-26.628906 132.671875-74.980469 181.019531-48.347656 48.351563-112.640625 74.980469-181.019531 74.980469v-512c68.378906 0 132.671875 26.628906 181.019531 74.980469 48.351563 48.347656 74.980469 112.640625 74.980469 181.019531zm0 0" fill="#ffd300"/><path d="m371.992188 234.59375-97.5-56.289062 97.5-56.292969 15 25.980469-52.5 30.3125 52.5 30.308593zm0 0" fill="#7a3d06"/><path d="m139.15625 234.59375-15-25.980469 52.5-30.308593-52.5-30.3125 15-25.980469 97.5 56.292969zm0 0" fill="#b26d3c"/><path d="m413.25 389.671875v21.328125l-20.070312-7.21875c-.667969-.242188-67.929688-24.0625-137.179688-24.0625-69.449219 0-136.511719 23.820312-137.179688 24.0625l-20.070312 7.21875v-21.328125c0-36.816406 12.714844-70.71875 33.984375-97.542969 28.828125-36.359375 73.371094-8.320312 123.265625-8.320312s94.4375-28.039063 123.265625 8.320312c21.269531 26.828125 33.984375 60.726563 33.984375 97.542969zm0 0" fill="#f95858"/><path d="m413.25 389.671875v21.328125l-20.070312-7.21875c-.667969-.242188-67.929688-24.0625-137.179688-24.0625v-106.230469c49.894531 0 94.4375-17.714843 123.265625 18.644531 21.269531 26.824219 33.984375 60.722657 33.984375 97.539063zm0 0" fill="#ea1b5f"/><path d="m379.261719 292.128906h-246.523438c28.832031-36.347656 73.371094-59.71875 123.261719-59.71875s94.429688 23.371094 123.261719 59.71875zm0 0" fill="#dcf3ff"/><path d="m379.261719 292.128906h-123.261719v-59.71875c49.890625 0 94.429688 23.371094 123.261719 59.71875zm0 0" fill="#b0e2fa"/></svg>