<svg height="512pt" viewBox="0 0 512 512" width="512pt" xmlns="http://www.w3.org/2000/svg"><path d="m512 256c0 68.378906-26.628906 132.671875-74.980469 181.019531-48.347656 48.351563-112.640625 74.980469-181.019531 74.980469s-132.671875-26.628906-181.019531-74.980469c-48.351563-48.347656-74.980469-112.640625-74.980469-181.019531s26.628906-132.671875 74.980469-181.019531c48.347656-48.351563 112.640625-74.980469 181.019531-74.980469s132.671875 26.628906 181.019531 74.980469c48.351563 48.347656 74.980469 112.640625 74.980469 181.019531zm0 0" fill="#ffe171"/><path d="m512 256c0 68.378906-26.628906 132.671875-74.980469 181.019531-48.347656 48.351563-112.640625 74.980469-181.019531 74.980469v-512c68.378906 0 132.671875 26.628906 181.019531 74.980469 48.351563 48.347656 74.980469 112.640625 74.980469 181.019531zm0 0" fill="#ffd300"/><path d="m419 345.671875c0 5.167969-.628906 10.199219-1.839844 15-2.738281 11.058594-8.46875 20.9375-16.28125 28.738281-11.199218 11.191406-26.660156 18.121094-43.738281 18.121094h-202.28125c-28.988281 0-53.320313-19.953125-60.019531-46.859375-1.210938-4.800781-1.839844-9.832031-1.839844-15 0-5.171875.628906-10.203125 1.839844-15 2.738281-11.0625 8.46875-20.941406 16.28125-28.742187 11.199218-11.199219 26.660156-18.121094 43.738281-18.121094h202.28125c28.988281 0 53.328125 19.941406 60.019531 46.863281 1.210938 4.796875 1.839844 9.828125 1.839844 15zm0 0" fill="#dcf3ff"/><path d="m154.984375 154.332031c-24.132813 0-43.765625 19.632813-43.765625 43.765625 0 24.132813 19.632812 43.761719 43.765625 43.761719s43.761719-19.632813 43.761719-43.761719c0-24.132812-19.632813-43.765625-43.761719-43.765625zm0 0" fill="#b26d3c"/><path d="m357.015625 154.332031c-24.132813 0-43.761719 19.632813-43.761719 43.765625 0 24.132813 19.632813 43.761719 43.761719 43.761719 24.132813 0 43.765625-19.632813 43.765625-43.761719 0-24.132812-19.632812-43.765625-43.765625-43.765625zm0 0" fill="#7a3d06"/><path d="m419 345.671875c0 5.167969-.628906 10.199219-1.839844 15-2.738281 11.058594-8.46875 20.9375-16.28125 28.738281-11.199218 11.191406-26.660156 18.121094-43.738281 18.121094h-101.140625v-123.722656h101.140625c28.988281 0 53.328125 19.941406 60.019531 46.863281 1.210938 4.796875 1.839844 9.828125 1.839844 15zm0 0" fill="#b0e2fa"/><path d="m419 345.671875c0 5.167969-.628906 10.199219-1.839844 15h-322.320312c-1.210938-4.800781-1.839844-9.832031-1.839844-15 0-5.171875.628906-10.203125 1.839844-15h322.320312c1.210938 4.796875 1.839844 9.828125 1.839844 15zm0 0" fill="#b26d3c"/><path d="m419 345.671875c0 5.167969-.628906 10.199219-1.839844 15h-161.160156v-30h161.160156c1.210938 4.796875 1.839844 9.828125 1.839844 15zm0 0" fill="#7a3d06"/></svg>