<svg height="512pt" viewBox="0 0 512 512" width="512pt" xmlns="http://www.w3.org/2000/svg"><path d="m512 256c0 68.378906-26.628906 132.671875-74.980469 181.019531-48.347656 48.351563-112.640625 74.980469-181.019531 74.980469s-132.671875-26.628906-181.019531-74.980469c-48.351563-48.347656-74.980469-112.640625-74.980469-181.019531s26.628906-132.671875 74.980469-181.019531c48.347656-48.351563 112.640625-74.980469 181.019531-74.980469s132.671875 26.628906 181.019531 74.980469c48.351563 48.347656 74.980469 112.640625 74.980469 181.019531zm0 0" fill="#ffe171"/><path d="m512 256c0 68.378906-26.628906 132.671875-74.980469 181.019531-48.347656 48.351563-112.640625 74.980469-181.019531 74.980469v-512c68.378906 0 132.671875 26.628906 181.019531 74.980469 48.351563 48.347656 74.980469 112.640625 74.980469 181.019531zm0 0" fill="#ffd300"/><path d="m198.636719 182.5c0 26.785156-21.714844 48.5-48.5 48.5-26.785157 0-48.5-21.714844-48.5-48.5s21.714843-48.5 48.5-48.5c26.785156 0 48.5 21.714844 48.5 48.5zm0 0" fill="#b26d3c"/><path d="m410.363281 182.5c0 26.785156-21.714843 48.5-48.5 48.5-26.785156 0-48.5-21.714844-48.5-48.5s21.714844-48.5 48.5-48.5c26.785157 0 48.5 21.714844 48.5 48.5zm0 0" fill="#7a3d06"/><path d="m150.136719 246c-35.015625 0-63.5-28.484375-63.5-63.5s28.484375-63.5 63.5-63.5 63.5 28.484375 63.5 63.5-28.484375 63.5-63.5 63.5zm0-97c-18.472657 0-33.5 15.027344-33.5 33.5s15.027343 33.5 33.5 33.5c18.472656 0 33.5-15.027344 33.5-33.5s-15.027344-33.5-33.5-33.5zm0 0" fill="#dcf3ff"/><path d="m361.863281 246c-35.015625 0-63.5-28.484375-63.5-63.5s28.484375-63.5 63.5-63.5 63.5 28.484375 63.5 63.5-28.484375 63.5-63.5 63.5zm0-97c-18.472656 0-33.5 15.027344-33.5 33.5s15.027344 33.5 33.5 33.5c18.472657 0 33.5-15.027344 33.5-33.5s-15.027343-33.5-33.5-33.5zm0 0" fill="#dcf3ff"/><path d="m334.660156 333.320312v32.019532c0 3.191406-.191406 6.332031-.558594 9.421875-4.671874 38.949219-78.101562-25.425781-78.101562-25.425781s-73.429688 64.375-78.101562 25.425781c-.367188-3.089844-.558594-6.230469-.558594-9.421875v-32.019532c0-43.371093 35.289062-78.648437 78.660156-78.648437s78.660156 35.277344 78.660156 78.648437zm0 0" fill="#b26d3c"/><path d="m334.660156 333.320312v32.019532c0 3.191406-.191406 6.332031-.558594 9.421875-4.671874 38.949219-37.921874-25.425781-78.101562-25.425781v-94.664063c43.371094 0 78.660156 35.277344 78.660156 78.648437zm0 0" fill="#7a3d06"/><path d="m334.101562 374.761719c-4.671874 38.949219-37.921874 69.238281-78.101562 69.238281s-73.429688-30.289062-78.101562-69.238281c14.441406-13.671875 40.441406-31.433594 78.101562-31.433594s63.660156 17.761719 78.101562 31.433594zm0 0" fill="#f95858"/><path d="m334.101562 374.761719c-4.671874 38.949219-37.921874 69.238281-78.101562 69.238281v-100.671875c37.660156 0 63.660156 17.761719 78.101562 31.433594zm0 0" fill="#ea1b5f"/></svg>