<svg height="512pt" viewBox="0 0 512 512" width="512pt" xmlns="http://www.w3.org/2000/svg"><path d="m512 256c0 68.378906-26.628906 132.671875-74.980469 181.019531-48.347656 48.351563-112.640625 74.980469-181.019531 74.980469s-132.671875-26.628906-181.019531-74.980469c-48.351563-48.347656-74.980469-112.640625-74.980469-181.019531s26.628906-132.671875 74.980469-181.019531c48.347656-48.351563 112.640625-74.980469 181.019531-74.980469s132.671875 26.628906 181.019531 74.980469c48.351563 48.347656 74.980469 112.640625 74.980469 181.019531zm0 0" fill="#ffe171"/><path d="m512 256c0 68.378906-26.628906 132.671875-74.980469 181.019531-48.347656 48.351563-112.640625 74.980469-181.019531 74.980469v-512c68.378906 0 132.671875 26.628906 181.019531 74.980469 48.351563 48.347656 74.980469 112.640625 74.980469 181.019531zm0 0" fill="#ffd300"/><path d="m371.992188 258.652344-97.5-56.292969 97.5-56.289063 15 25.980469-52.5 30.308594 52.5 30.3125zm0 0" fill="#7a3d06"/><path d="m139.15625 258.652344-15-25.980469 52.5-30.3125-52.5-30.308594 15-25.980469 97.5 56.289063zm0 0" fill="#b26d3c"/><path d="m402.671875 326.261719-54.902344 41.199219-45.890625-34.441407-45.878906 34.429688-.011719.011719-45.878906-34.441407-45.890625 34.441407-54.890625-41.199219 18.011719-23.992188 36.878906 27.679688 45.890625-34.4375 45.878906 34.4375.011719-.007813 45.878906-34.429687 45.890625 34.4375 36.890625-27.679688zm0 0" fill="#b26d3c"/><path d="m402.671875 326.261719-54.902344 41.199219-45.890625-34.441407-45.878906 34.429688v-37.507813l45.878906-34.429687 45.890625 34.4375 36.890625-27.679688zm0 0" fill="#7a3d06"/></svg>