<svg height="512pt" viewBox="0 0 512 512" width="512pt" xmlns="http://www.w3.org/2000/svg"><path d="m512 256c0 68.378906-26.628906 132.671875-74.980469 181.019531-48.347656 48.351563-112.640625 74.980469-181.019531 74.980469s-132.671875-26.628906-181.019531-74.980469c-48.351563-48.347656-74.980469-112.640625-74.980469-181.019531s26.628906-132.671875 74.980469-181.019531c48.347656-48.351563 112.640625-74.980469 181.019531-74.980469s132.671875 26.628906 181.019531 74.980469c48.351563 48.347656 74.980469 112.640625 74.980469 181.019531zm0 0" fill="#ffe171"/><path d="m512 256c0 68.378906-26.628906 132.671875-74.980469 181.019531-48.347656 48.351563-112.640625 74.980469-181.019531 74.980469v-512c68.378906 0 132.671875 26.628906 181.019531 74.980469 48.351563 48.347656 74.980469 112.640625 74.980469 181.019531zm0 0" fill="#ffd300"/><path d="m405.289062 269.710938c0 82.449218-66.839843 149.289062-149.289062 149.289062s-149.289062-66.839844-149.289062-149.289062zm0 0" fill="#dcf3ff"/><path d="m227.53125 190.332031h-30c0-14.152343-11.515625-25.667969-25.667969-25.667969-14.152343 0-25.667969 11.515626-25.667969 25.667969h-30c0-30.695312 24.972657-55.667969 55.667969-55.667969 30.695313 0 55.667969 24.976563 55.667969 55.667969zm0 0" fill="#b26d3c"/><path d="m395.804688 190.332031h-30c0-14.152343-11.515626-25.667969-25.667969-25.667969-14.152344 0-25.667969 11.515626-25.667969 25.667969h-30c0-30.695312 24.972656-55.667969 55.667969-55.667969 30.695312 0 55.667969 24.976563 55.667969 55.667969zm0 0" fill="#7a3d06"/><path d="m405.289062 269.710938c0 82.449218-66.839843 149.289062-149.289062 149.289062v-149.289062zm0 0" fill="#b0e2fa"/><path d="m91.710938 254.710938v15c0 90.589843 73.699218 164.289062 164.289062 164.289062s164.289062-73.699219 164.289062-164.289062v-15zm74.640624 114.898437c-23.882812-21.449219-40.0625-51.328125-43.8125-84.898437h43.8125zm74.648438 33.550781c-15.878906-1.769531-30.921875-6.320312-44.648438-13.148437v-105.300781h44.648438zm74.648438-13.148437c-13.726563 6.828125-28.769532 11.378906-44.648438 13.148437v-118.449218h44.648438zm30-20.402344v-84.898437h43.8125c-3.75 33.570312-19.929688 63.449218-43.8125 84.898437zm0 0" fill="#b26d3c"/><path d="m256 254.710938v179.289062c90.589844 0 164.289062-73.699219 164.289062-164.289062v-15zm59.648438 135.300781c-13.726563 6.828125-28.769532 11.378906-44.648438 13.148437v-118.449218h44.648438zm30-20.402344v-84.898437h43.8125c-3.75 33.570312-19.929688 63.449218-43.8125 84.898437zm0 0" fill="#7a3d06"/></svg>