<svg height="512pt" viewBox="0 0 512 512" width="512pt" xmlns="http://www.w3.org/2000/svg"><path d="m512 256c0 68.378906-26.628906 132.671875-74.980469 181.019531-48.347656 48.351563-112.640625 74.980469-181.019531 74.980469s-132.671875-26.628906-181.019531-74.980469c-48.351563-48.347656-74.980469-112.640625-74.980469-181.019531s26.628906-132.671875 74.980469-181.019531c48.347656-48.351563 112.640625-74.980469 181.019531-74.980469s132.671875 26.628906 181.019531 74.980469c48.351563 48.347656 74.980469 112.640625 74.980469 181.019531zm0 0" fill="#ffe171"/><path d="m512 256c0 68.378906-26.628906 132.671875-74.980469 181.019531-48.347656 48.351563-112.640625 74.980469-181.019531 74.980469v-512c68.378906 0 132.671875 26.628906 181.019531 74.980469 48.351563 48.347656 74.980469 112.640625 74.980469 181.019531zm0 0" fill="#ffd300"/><path d="m154.984375 154.332031c-24.132813 0-43.765625 19.632813-43.765625 43.765625 0 24.132813 19.632812 43.761719 43.765625 43.761719s43.761719-19.632813 43.761719-43.761719c0-24.132812-19.632813-43.765625-43.761719-43.765625zm0 0" fill="#b26d3c"/><path d="m357.015625 154.332031c-24.132813 0-43.761719 19.632813-43.761719 43.765625 0 24.132813 19.632813 43.761719 43.761719 43.761719 24.132813 0 43.765625-19.632813 43.765625-43.761719 0-24.132812-19.632812-43.765625-43.765625-43.765625zm0 0" fill="#7a3d06"/><path d="m301.949219 380.398438c0 15.410156-7.96875 29.210937-21.320313 36.921874l-.457031.257813-24.171875 12.832031-8.328125 4.417969-14.070313-26.5 22.398438-11.886719 9.820312-5.210937c5.53125-3.300781 6.128907-8.660157 6.128907-10.832031 0-2.1875-.621094-7.648438-6.320313-10.9375l-9.628906-5.5625-12.691406-7.328126v-17.710937l12.691406-7.328125 9.628906-5.5625c5.699219-3.289062 6.320313-8.75 6.320313-10.9375 0-2.191406-.621094-7.652344-6.320313-10.941406l-9.628906-5.511719-22.820312-13.058594 14.910156-26.039062 7.910156 4.53125 24.578125 14.066406c13.402344 7.742187 21.371094 21.542969 21.371094 36.953125 0 12.898438-5.589844 24.667969-15.230469 32.6875 9.652344 8.011719 15.230469 19.78125 15.230469 32.679688zm0 0" fill="#b26d3c"/><path d="m301.949219 380.398438c0 15.410156-7.96875 29.210937-21.320313 36.921874l-.457031.257813-24.171875 12.832031v-33.96875l9.820312-5.210937c5.53125-3.300781 6.128907-8.660157 6.128907-10.832031 0-2.1875-.621094-7.648438-6.320313-10.9375l-9.628906-5.5625v-32.367188l9.628906-5.5625c5.699219-3.289062 6.320313-8.75 6.320313-10.9375 0-2.191406-.621094-7.652344-6.320313-10.941406l-9.628906-5.511719v-34.566406l24.578125 14.066406c13.402344 7.742187 21.371094 21.542969 21.371094 36.953125 0 12.898438-5.589844 24.667969-15.230469 32.6875 9.652344 8.011719 15.230469 19.78125 15.230469 32.679688zm0 0" fill="#7a3d06"/></svg>