<svg height="512pt" viewBox="0 0 512 512" width="512pt" xmlns="http://www.w3.org/2000/svg"><path d="m512 256c0 68.378906-26.628906 132.671875-74.980469 181.019531-48.347656 48.351563-112.640625 74.980469-181.019531 74.980469s-132.671875-26.628906-181.019531-74.980469c-48.351563-48.347656-74.980469-112.640625-74.980469-181.019531s26.628906-132.671875 74.980469-181.019531c48.347656-48.351563 112.640625-74.980469 181.019531-74.980469s132.671875 26.628906 181.019531 74.980469c48.351563 48.347656 74.980469 112.640625 74.980469 181.019531zm0 0" fill="#ffe171"/><path d="m512 256c0 68.378906-26.628906 132.671875-74.980469 181.019531-48.347656 48.351563-112.640625 74.980469-181.019531 74.980469v-512c68.378906 0 132.671875 26.628906 181.019531 74.980469 48.351563 48.347656 74.980469 112.640625 74.980469 181.019531zm0 0" fill="#ffd300"/><path d="m227.53125 222.695312h-30c0-14.152343-11.515625-25.667968-25.667969-25.667968-14.152343 0-25.667969 11.515625-25.667969 25.667968h-30c0-30.695312 24.972657-55.667968 55.667969-55.667968 30.695313 0 55.667969 24.972656 55.667969 55.667968zm0 0" fill="#b26d3c"/><path d="m405.710938 280.46875v15c0 82.550781-67.160157 149.710938-149.710938 149.710938s-149.710938-67.160157-149.710938-149.710938v-15zm0 0" fill="#b26d3c"/><path d="m405.710938 280.46875v15c0 82.550781-67.160157 149.710938-149.710938 149.710938v-164.710938zm0 0" fill="#7a3d06"/><path d="m333.148438 340.671875v94.179687c0 42.539063-34.609376 77.148438-77.148438 77.148438s-77.148438-34.609375-77.148438-77.148438v-94.179687zm0 0" fill="#f95858"/><path d="m333.148438 340.671875v94.179687c0 42.539063-34.609376 77.148438-77.148438 77.148438v-171.328125zm0 0" fill="#ea1b5f"/><path d="m241 340.671875h30v70.828125h-30zm0 0" fill="#d83535"/><path d="m256 340.671875h15v70.828125h-15zm0 0" fill="#b70641"/><path d="m357.015625 154.332031c-24.132813 0-43.761719 19.632813-43.761719 43.765625 0 24.132813 19.632813 43.761719 43.761719 43.761719 24.132813 0 43.765625-19.632813 43.765625-43.761719 0-24.132812-19.632812-43.765625-43.765625-43.765625zm0 0" fill="#7a3d06"/></svg>