<svg height="512pt" viewBox="0 0 512 512" width="512pt" xmlns="http://www.w3.org/2000/svg"><path d="m512 256c0 68.378906-26.628906 132.671875-74.980469 181.019531-48.347656 48.351563-112.640625 74.980469-181.019531 74.980469s-132.671875-26.628906-181.019531-74.980469c-48.351563-48.347656-74.980469-112.640625-74.980469-181.019531s26.628906-132.671875 74.980469-181.019531c48.347656-48.351563 112.640625-74.980469 181.019531-74.980469s132.671875 26.628906 181.019531 74.980469c48.351563 48.347656 74.980469 112.640625 74.980469 181.019531zm0 0" fill="#ffe171"/><path d="m512 256c0 68.378906-26.628906 132.671875-74.980469 181.019531-48.347656 48.351563-112.640625 74.980469-181.019531 74.980469v-512c68.378906 0 132.671875 26.628906 181.019531 74.980469 48.351563 48.347656 74.980469 112.640625 74.980469 181.019531zm0 0" fill="#ffd300"/><path d="m391.179688 209.078125-26.21875 14.59375c-22.011719-39.542969-63.761719-64.101563-108.960938-64.101563s-86.949219 24.558594-108.960938 64.101563l-26.21875-14.59375c27.308594-49.046875 79.109376-79.507813 135.179688-79.507813s107.871094 30.460938 135.179688 79.507813zm0 0" fill="#b26d3c"/><path d="m346.390625 260.140625c-28.269531 0-51.265625 22.996094-51.265625 51.261719 0 28.269531 22.996094 51.265625 51.265625 51.265625 28.265625 0 51.261719-22.996094 51.261719-51.265625 0-28.265625-22.996094-51.261719-51.261719-51.261719zm0 0" fill="#7a3d06"/><path d="m165.609375 260.140625c-28.265625 0-51.261719 22.996094-51.261719 51.261719 0 28.269531 22.996094 51.265625 51.261719 51.265625 28.269531 0 51.265625-22.996094 51.265625-51.265625 0-28.265625-22.996094-51.261719-51.265625-51.261719zm0 0" fill="#b26d3c"/><path d="m391.179688 209.078125-26.21875 14.59375c-22.011719-39.542969-63.761719-64.101563-108.960938-64.101563v-30c56.070312 0 107.871094 30.460938 135.179688 79.507813zm0 0" fill="#7a3d06"/></svg>