<svg height="512pt" viewBox="0 0 512 512" width="512pt" xmlns="http://www.w3.org/2000/svg"><path d="m512 256c0 68.378906-26.628906 132.671875-74.980469 181.019531-48.347656 48.351563-112.640625 74.980469-181.019531 74.980469s-132.671875-26.628906-181.019531-74.980469c-48.351563-48.347656-74.980469-112.640625-74.980469-181.019531s26.628906-132.671875 74.980469-181.019531c48.347656-48.351563 112.640625-74.980469 181.019531-74.980469s132.671875 26.628906 181.019531 74.980469c48.351563 48.347656 74.980469 112.640625 74.980469 181.019531zm0 0" fill="#ffe171"/><path d="m512 256c0 68.378906-26.628906 132.671875-74.980469 181.019531-48.347656 48.351563-112.640625 74.980469-181.019531 74.980469v-512c68.378906 0 132.671875 26.628906 181.019531 74.980469 48.351563 48.347656 74.980469 112.640625 74.980469 181.019531zm0 0" fill="#ffd300"/><path d="m386.570312 390.519531h-30c0-45.199219-42.050781-81.96875-93.71875-81.96875-2.300781 0-4.582031.070313-6.851562.210938-23.140625 1.449219-44.5 10.207031-60.769531 25.039062l-20.21875-22.171875c21.789062-19.859375 50.316406-31.410156 80.988281-32.898437 2.269531-.121094 4.558594-.179688 6.851562-.179688 68.21875 0 123.71875 50.230469 123.71875 111.96875zm0 0" fill="#b26d3c"/><path d="m154.984375 154.332031c-24.132813 0-43.765625 19.632813-43.765625 43.765625 0 24.132813 19.632812 43.761719 43.765625 43.761719s43.761719-19.632813 43.761719-43.761719c0-24.132812-19.632813-43.765625-43.761719-43.765625zm0 0" fill="#b26d3c"/><g fill="#7a3d06"><path d="m357.015625 154.332031c-24.132813 0-43.761719 19.632813-43.761719 43.765625 0 24.132813 19.632813 43.761719 43.761719 43.761719 24.132813 0 43.765625-19.632813 43.765625-43.761719 0-24.132812-19.632812-43.765625-43.765625-43.765625zm0 0"/><path d="m386.570312 390.519531h-30c0-45.199219-42.050781-81.96875-93.71875-81.96875-2.300781 0-4.582031.070313-6.851562.210938v-30.03125c2.269531-.121094 4.558594-.179688 6.851562-.179688 68.21875 0 123.71875 50.230469 123.71875 111.96875zm0 0"/></g></svg>