<svg height="512pt" viewBox="0 0 512 512" width="512pt" xmlns="http://www.w3.org/2000/svg"><path d="m512 256c0 68.378906-26.628906 132.671875-74.980469 181.019531-48.347656 48.351563-112.640625 74.980469-181.019531 74.980469s-132.671875-26.628906-181.019531-74.980469c-48.351563-48.347656-74.980469-112.640625-74.980469-181.019531s26.628906-132.671875 74.980469-181.019531c48.347656-48.351563 112.640625-74.980469 181.019531-74.980469s132.671875 26.628906 181.019531 74.980469c48.351563 48.347656 74.980469 112.640625 74.980469 181.019531zm0 0" fill="#ffe171"/><path d="m512 256c0 68.378906-26.628906 132.671875-74.980469 181.019531-48.347656 48.351563-112.640625 74.980469-181.019531 74.980469v-512c68.378906 0 132.671875 26.628906 181.019531 74.980469 48.351563 48.347656 74.980469 112.640625 74.980469 181.019531zm0 0" fill="#ffd300"/><path d="m149.203125 136.859375c-49.074219 0-89 39.925781-89 89 0 49.078125 39.925781 89 89 89s89-39.921875 89-89c0-49.074219-39.925781-89-89-89zm0 0" fill="#dcf3ff"/><path d="m149.203125 136.859375c-27.332031 0-49.570313 22.238281-49.570313 49.570313 0 27.332031 22.238282 49.570312 49.570313 49.570312s49.570313-22.234375 49.570313-49.570312c0-27.332032-22.238282-49.570313-49.570313-49.570313zm0 0" fill="#b26d3c"/><path d="m362.796875 136.859375c-49.074219 0-89 39.925781-89 89 0 49.078125 39.925781 89 89 89s89-39.921875 89-89c0-49.074219-39.925781-89-89-89zm0 0" fill="#b0e2fa"/><path d="m362.796875 136.859375c-27.332031 0-49.570313 22.238281-49.570313 49.570313 0 27.332031 22.238282 49.570312 49.570313 49.570312s49.570313-22.234375 49.570313-49.570312c0-27.332032-22.238282-49.570313-49.570313-49.570313zm0 0" fill="#7a3d06"/><path d="m203.222656 365.542969h105.554688v30h-105.554688zm0 0" fill="#b26d3c"/><path d="m256 365.542969h52.777344v30h-52.777344zm0 0" fill="#7a3d06"/></svg>