<svg height="512pt" viewBox="0 0 512 512" width="512pt" xmlns="http://www.w3.org/2000/svg"><path d="m512 256c0 68.378906-26.628906 132.671875-74.980469 181.019531-48.347656 48.351563-112.640625 74.980469-181.019531 74.980469s-132.671875-26.628906-181.019531-74.980469c-48.351563-48.347656-74.980469-112.640625-74.980469-181.019531s26.628906-132.671875 74.980469-181.019531c48.347656-48.351563 112.640625-74.980469 181.019531-74.980469s132.671875 26.628906 181.019531 74.980469c48.351563 48.347656 74.980469 112.640625 74.980469 181.019531zm0 0" fill="#ffe171"/><path d="m512 256c0 68.378906-26.628906 132.671875-74.980469 181.019531-48.347656 48.351563-112.640625 74.980469-181.019531 74.980469v-512c68.378906 0 132.671875 26.628906 181.019531 74.980469 48.351563 48.347656 74.980469 112.640625 74.980469 181.019531zm0 0" fill="#ffd300"/><path d="m206.722656 141.253906-33.175781 33.179688-33.175781-33.179688-21.214844 21.214844 33.179688 33.175781-33.179688 33.175781 21.214844 21.214844 33.175781-33.179687 33.175781 33.179687 21.214844-21.214844-33.175781-33.175781 33.175781-33.175781zm0 0" fill="#b26d3c"/><path d="m392.84375 162.46875-21.214844-21.214844-33.175781 33.179688-33.175781-33.179688-21.214844 21.214844 33.175781 33.175781-33.175781 33.175781 21.214844 21.214844 33.175781-33.179687 33.175781 33.179687 21.214844-21.214844-33.179688-33.175781zm0 0" fill="#7a3d06"/><path d="m328.128906 352.539062c0 39.769532-32.359375 72.132813-72.128906 72.132813s-72.128906-32.363281-72.128906-72.132813c0-39.769531 32.359375-72.128906 72.128906-72.128906s72.128906 32.359375 72.128906 72.128906zm0 0" fill="#f95858"/><path d="m328.128906 352.539062c0 39.769532-32.359375 72.132813-72.128906 72.132813v-144.261719c39.769531 0 72.128906 32.359375 72.128906 72.128906zm0 0" fill="#ea1b5f"/></svg>