<svg height="512pt" viewBox="0 0 512 512" width="512pt" xmlns="http://www.w3.org/2000/svg"><path d="m512 256c0 68.378906-26.628906 132.671875-74.980469 181.019531-48.347656 48.351563-112.640625 74.980469-181.019531 74.980469s-132.671875-26.628906-181.019531-74.980469c-48.351563-48.347656-74.980469-112.640625-74.980469-181.019531s26.628906-132.671875 74.980469-181.019531c48.347656-48.351563 112.640625-74.980469 181.019531-74.980469s132.671875 26.628906 181.019531 74.980469c48.351563 48.347656 74.980469 112.640625 74.980469 181.019531zm0 0" fill="#f95858"/><path d="m512 256c0 68.378906-26.628906 132.671875-74.980469 181.019531-48.347656 48.351563-112.640625 74.980469-181.019531 74.980469v-512c68.378906 0 132.671875 26.628906 181.019531 74.980469 48.351563 48.347656 74.980469 112.640625 74.980469 181.019531zm0 0" fill="#ea1b5f"/><path d="m362.191406 385.351562-26.222656 14.597657c-16.199219-29.097657-46.769531-47.289063-79.96875-47.667969-.351562-.011719-.710938-.011719-1.058594-.011719-33.613281 0-64.652344 18.269531-81.019531 47.679688l-26.222656-14.597657c21.671875-38.902343 62.761719-63.082031 107.242187-63.082031.347656 0 .707032 0 1.058594.011719 44.078125.378906 84.691406 24.480469 106.191406 63.070312zm0 0" fill="#dcf3ff"/><path d="m229.945312 249.945312h-30v-28l-101.941406-45.457031 12.21875-27.398437 119.722656 53.390625zm0 0" fill="#dcf3ff"/><g fill="#b0e2fa"><path d="m312.054688 249.945312h-30v-47.464843l119.722656-53.390625 12.21875 27.398437-101.941406 45.457031zm0 0"/><path d="m362.191406 385.351562-26.222656 14.597657c-16.199219-29.097657-46.769531-47.289063-79.96875-47.667969v-30c44.078125.378906 84.691406 24.480469 106.191406 63.070312zm0 0"/></g></svg>