<svg height="512pt" viewBox="0 0 512 512" width="512pt" xmlns="http://www.w3.org/2000/svg"><path d="m512 256c0 68.378906-26.628906 132.671875-74.980469 181.019531-48.347656 48.351563-112.640625 74.980469-181.019531 74.980469s-132.671875-26.628906-181.019531-74.980469c-48.351563-48.347656-74.980469-112.640625-74.980469-181.019531s26.628906-132.671875 74.980469-181.019531c48.347656-48.351563 112.640625-74.980469 181.019531-74.980469s132.671875 26.628906 181.019531 74.980469c48.351563 48.347656 74.980469 112.640625 74.980469 181.019531zm0 0" fill="#ffe171"/><path d="m512 256c0 68.378906-26.628906 132.671875-74.980469 181.019531-48.347656 48.351563-112.640625 74.980469-181.019531 74.980469v-512c68.378906 0 132.671875 26.628906 181.019531 74.980469 48.351563 48.347656 74.980469 112.640625 74.980469 181.019531zm0 0" fill="#ffd300"/><path d="m340.136719 296.640625c-30.695313 0-55.667969-24.972656-55.667969-55.667969h30c0 14.152344 11.515625 25.667969 25.667969 25.667969 14.152343 0 25.667969-11.515625 25.667969-25.667969h30c0 30.695313-24.972657 55.667969-55.667969 55.667969zm0 0" fill="#7a3d06"/><path d="m171.863281 296.640625c-30.695312 0-55.667969-24.972656-55.667969-55.667969h30c0 14.152344 11.515626 25.667969 25.667969 25.667969 14.152344 0 25.667969-11.515625 25.667969-25.667969h30c0 30.695313-24.972656 55.667969-55.667969 55.667969zm0 0" fill="#b26d3c"/><path d="m281.058594 165v30h-91v-24.671875l50.453125-62h-50.113281v-30h85v34.671875l-19.398438 23.839844-22.921875 28.160156zm0 0" fill="#4cc4ff"/><path d="m378.875 156.628906h-76.199219v-23.820312l37.40625-45.964844h-34.21875v-30h71.371094v31.871094l-30.851563 37.914062h32.492188zm0 0" fill="#169eff"/><path d="m311.359375 387c0 32.21875-24.828125 58.441406-55.359375 58.449219-.011719 0-.011719 0-.019531 0-30.539063 0-55.390625-26.21875-55.390625-58.449219s24.851562-58.449219 55.390625-58.449219h.019531c30.53125.007813 55.359375 26.230469 55.359375 58.449219zm0 0" fill="#b26d3c"/><path d="m275.398438 113-19.398438 23.839844v-58.511719h19.398438zm0 0" fill="#169eff"/><path d="m256 165h25.058594v30h-25.058594zm0 0" fill="#169eff"/><path d="m311.359375 387c0 32.21875-24.828125 58.441406-55.359375 58.449219v-116.898438c30.53125.007813 55.359375 26.230469 55.359375 58.449219zm0 0" fill="#7a3d06"/></svg>