<svg height="512pt" viewBox="0 0 512 512" width="512pt" xmlns="http://www.w3.org/2000/svg"><path d="m512 256c0 68.378906-26.628906 132.671875-74.980469 181.019531-48.347656 48.351563-112.640625 74.980469-181.019531 74.980469s-132.671875-26.628906-181.019531-74.980469c-48.351563-48.347656-74.980469-112.640625-74.980469-181.019531s26.628906-132.671875 74.980469-181.019531c48.347656-48.351563 112.640625-74.980469 181.019531-74.980469s132.671875 26.628906 181.019531 74.980469c48.351563 48.347656 74.980469 112.640625 74.980469 181.019531zm0 0" fill="#ffe171"/><path d="m512 256c0 68.378906-26.628906 132.671875-74.980469 181.019531-48.347656 48.351563-112.640625 74.980469-181.019531 74.980469v-512c68.378906 0 132.671875 26.628906 181.019531 74.980469 48.351563 48.347656 74.980469 112.640625 74.980469 181.019531zm0 0" fill="#ffd300"/><path d="m402 387v15h-292v-15c0-80.5 65.5-146 146-146s146 65.5 146 146zm0 0" fill="#b26d3c"/><path d="m402 387v15h-146v-161c80.5 0 146 65.5 146 146zm0 0" fill="#7a3d06"/><path d="m397.582031 210h-132.671875l91.238282-101.410156 22.304687 20.066406-46.195313 51.34375h65.324219zm0 0" fill="#7a3d06"/><path d="m247.089844 210h-132.671875v-30h65.324219l-46.195313-51.34375 22.304687-20.066406zm0 0" fill="#b26d3c"/><path d="m375.640625 464.558594c0 26.160156-21.28125 47.441406-47.429687 47.441406h-144.421876c-26.148437 0-47.429687-21.28125-47.429687-47.441406 0-20.917969 13.609375-38.71875 32.429687-45.007813v-49.691406c0-29.910156 24.339844-54.25 54.25-54.25h65.921876c29.910156 0 54.25 24.339844 54.25 54.25v49.691406c18.820312 6.289063 32.429687 24.089844 32.429687 45.007813zm0 0" fill="#8cdc53"/><g fill="#5dc379"><path d="m241 398.5h30v113.5h-30zm0 0"/><path d="m241 315.609375h30v51.390625h-30zm0 0"/><path d="m375.640625 464.558594c0 26.160156-21.28125 47.441406-47.429687 47.441406h-72.210938v-196.390625h32.960938c29.910156 0 54.25 24.339844 54.25 54.25v49.691406c18.820312 6.289063 32.429687 24.089844 32.429687 45.007813zm0 0"/></g><path d="m256 315.609375h15v51.390625h-15zm0 0" fill="#009854"/><path d="m256 398.5h15v113.5h-15zm0 0" fill="#009854"/></svg>