<svg height="512pt" viewBox="0 0 512 512" width="512pt" xmlns="http://www.w3.org/2000/svg"><path d="m512 256c0 68.378906-26.628906 132.671875-74.980469 181.019531-48.347656 48.351563-112.640625 74.980469-181.019531 74.980469s-132.671875-26.628906-181.019531-74.980469c-48.351563-48.347656-74.980469-112.640625-74.980469-181.019531s26.628906-132.671875 74.980469-181.019531c48.347656-48.351563 112.640625-74.980469 181.019531-74.980469s132.671875 26.628906 181.019531 74.980469c48.351563 48.347656 74.980469 112.640625 74.980469 181.019531zm0 0" fill="#8cdc53"/><path d="m512 256c0 68.378906-26.628906 132.671875-74.980469 181.019531-48.347656 48.351563-112.640625 74.980469-181.019531 74.980469v-512c68.378906 0 132.671875 26.628906 181.019531 74.980469 48.351563 48.347656 74.980469 112.640625 74.980469 181.019531zm0 0" fill="#5dc379"/><path d="m169.921875 225.996094c-11.289063 0-22.292969-3.4375-31.746094-10.039063-12.191406-8.511719-20.339843-21.261719-22.941406-35.898437l29.535156-5.25c1.203125 6.75 4.957031 12.625 10.578125 16.550781 5.625 3.925781 12.4375 5.421875 19.183594 4.226563 6.753906-1.199219 12.632812-4.957032 16.554688-10.578126 3.925781-5.621093 5.425781-12.433593 4.226562-19.1875l29.535156-5.25c2.605469 14.640626-.652344 29.417969-9.164062 41.609376-8.507813 12.191406-21.257813 20.339843-35.898438 22.941406-3.289062.585937-6.589844.875-9.863281.875zm0 0" fill="#5dc379"/><path d="m342.078125 225.996094c-3.273437 0-6.570313-.289063-9.863281-.875-14.640625-2.601563-27.390625-10.75-35.898438-22.941406-8.511718-12.191407-11.765625-26.96875-9.164062-41.609376l29.535156 5.25c-1.199219 6.753907.300781 13.566407 4.226562 19.1875 3.921876 5.621094 9.800782 9.378907 16.550782 10.578126 6.75 1.195312 13.5625-.300782 19.1875-4.226563 5.621094-3.925781 9.375-9.800781 10.578125-16.550781l29.535156 5.25c-2.601563 14.636718-10.75 27.386718-22.941406 35.898437-9.453125 6.601563-20.457031 10.039063-31.746094 10.039063zm0 0" fill="#009854"/><path d="m346.398438 389.609375-9.257813 28.53125c-29.082031-9.449219-49.621094-34.480469-53.671875-64.121094-8.039062-5.507812-17.609375-8.5-27.46875-8.5s-19.429688 2.992188-27.46875 8.5c-4.050781 29.640625-24.589844 54.671875-53.671875 64.121094l-9.257813-28.53125c20.136719-6.550781 33.667969-25.179687 33.667969-46.371094 0-21.1875-13.53125-39.816406-33.667969-46.359375l9.257813-28.527344c25.378906 8.238282 44.261719 28.347657 51.351563 53.039063 9.378906-3.839844 19.480468-5.871094 29.789062-5.871094s20.410156 2.03125 29.789062 5.871094c7.089844-24.691406 25.972657-44.800781 51.351563-53.039063l9.257813 28.527344c-20.136719 6.542969-33.667969 25.171875-33.667969 46.359375 0 21.191407 13.53125 39.820313 33.667969 46.371094zm0 0" fill="#5dc379"/><path d="m346.398438 389.609375-9.257813 28.53125c-29.082031-9.449219-49.621094-34.480469-53.671875-64.121094-8.039062-5.507812-17.609375-8.5-27.46875-8.5v-30c10.308594 0 20.410156 2.03125 29.789062 5.871094 7.089844-24.691406 25.972657-44.800781 51.351563-53.039063l9.257813 28.527344c-20.136719 6.542969-33.667969 25.171875-33.667969 46.359375 0 21.191407 13.53125 39.820313 33.667969 46.371094zm0 0" fill="#009854"/></svg>