<svg height="512pt" viewBox="0 -2 512.00042 512" width="512pt" xmlns="http://www.w3.org/2000/svg"><path d="m511.988281 254.179688c0 67.894531-26.628906 131.726562-74.976562 179.734374-48.351563 48.003907-112.636719 74.445313-181.019531 74.445313-68.378907 0-132.667969-26.441406-181.015626-74.445313-48.347656-48.007812-74.976562-111.839843-74.976562-179.734374 0-67.894532 26.628906-131.726563 74.980469-179.730469 48.347656-48.007813 112.636719-74.449219 181.015625-74.449219s132.667968 26.441406 181.015625 74.449219c48.347656 48.003906 74.976562 111.835937 74.976562 179.730469zm0 0" fill="#f95858"/><path d="m511.988281 254.179688c0 67.894531-26.628906 131.726562-74.976562 179.734374-48.351563 48.003907-112.636719 74.445313-181.019531 74.445313v-508.359375c68.382812 0 132.667968 26.441406 181.019531 74.449219 48.347656 48.003906 74.976562 111.835937 74.976562 179.730469zm0 0" fill="#ea1b5f"/><path d="m333.238281 348.027344-19.152343 22.921875c-16.308594-13.445313-36.898438-20.9375-58.09375-21.179688-.351563-.007812-.703126-.007812-1.054688-.007812-20.824219 0-40.492188 6.699219-56.871094 19.375l-18.441406-23.492188c21.707031-16.792969 47.746094-25.667969 75.3125-25.667969.351562 0 .703125 0 1.054688.011719 28.179687.238281 55.578124 10.167969 77.246093 28.039063zm0 0" fill="#dcf3ff"/><path d="m333.238281 348.027344-19.152343 22.921875c-16.308594-13.445313-36.898438-20.9375-58.09375-21.179688v-29.78125c28.179687.238281 55.578124 10.167969 77.246093 28.039063zm0 0" fill="#b0e2fa"/><path d="m229.9375 229.03125h-29.996094v-27.800781l-101.9375-45.136719 12.21875-27.203125 119.714844 53.011719zm0 0" fill="#dcf3ff"/><path d="m312.050781 229.03125h-30v-47.128906l119.71875-53.011719 12.21875 27.203125-101.9375 45.136719zm0 0" fill="#b0e2fa"/><path d="m225.273438 273.070312-20.640626-15.066406-126.527343 76.195313c-23.535157-9.9375-51.542969-2.808594-67.191407 18.328125-17.628906 23.8125-13.347656 57.046875 9.15625 75.765625-6.476562 24.921875 2.707032 51.8125 24.347657 67.605469 11.480469 8.378906 24.910156 12.503906 38.28125 12.503906 11.835937 0 23.628906-3.234375 33.96875-9.609375 11.503906 7.339843 25.140625 10.234375 38.78125 8.167969 14.832031-2.25 27.894531-10.101563 36.78125-22.105469 15.648437-21.136719 14.136719-49.808594-2.433594-69.144531zm0 0" fill="#b0e2fa"/><path d="m501.074219 352.527344c-15.648438-21.140625-43.660157-28.261719-67.1875-18.328125l-126.527344-76.195313-20.640625 15.0625 35.476562 142.648438c-16.570312 19.332031-18.082031 48.003906-2.433593 69.140625 8.886719 12.003906 21.949219 19.855469 36.78125 22.105469 13.636719 2.0625 27.273437-.828126 38.78125-8.167969 10.339843 6.375 22.128906 9.609375 33.96875 9.609375 13.371093 0 26.800781-4.125 38.28125-12.503906 21.640625-15.792969 30.824219-42.683594 24.34375-67.605469 10.488281-8.710938 17.34375-20.769531 19.425781-34.3125 2.265625-14.726563-1.382812-29.449219-10.269531-41.453125zm0 0" fill="#73cce0"/></svg>