<svg height="512pt" viewBox="0 0 512 512" width="512pt" xmlns="http://www.w3.org/2000/svg"><path d="m512 256c0 68.378906-26.628906 132.671875-74.980469 181.019531-48.347656 48.351563-112.640625 74.980469-181.019531 74.980469s-132.671875-26.628906-181.019531-74.980469c-48.351563-48.347656-74.980469-112.640625-74.980469-181.019531s26.628906-132.671875 74.980469-181.019531c48.347656-48.351563 112.640625-74.980469 181.019531-74.980469s132.671875 26.628906 181.019531 74.980469c48.351563 48.347656 74.980469 112.640625 74.980469 181.019531zm0 0" fill="#ffe171"/><path d="m512 256c0 68.378906-26.628906 132.671875-74.980469 181.019531-48.347656 48.351563-112.640625 74.980469-181.019531 74.980469v-512c68.378906 0 132.671875 26.628906 181.019531 74.980469 48.351563 48.347656 74.980469 112.640625 74.980469 181.019531zm0 0" fill="#ffd300"/><path d="m401.339844 352.539062c0 23.019532-16.550782 43.769532-46.601563 58.421876-26.628906 12.980468-61.6875 20.128906-98.738281 20.128906s-72.109375-7.148438-98.738281-20.128906c-30.050781-14.652344-46.601563-35.402344-46.601563-58.421876 0-23.007812 16.550782-43.757812 46.601563-58.410156 26.628906-12.980468 61.6875-20.128906 98.738281-20.128906s72.109375 7.148438 98.738281 20.128906c30.050781 14.652344 46.601563 35.402344 46.601563 58.410156zm0 0" fill="#b26d3c"/><path d="m401.339844 352.539062c0 23.019532-16.550782 43.769532-46.601563 58.421876-26.628906 12.980468-61.6875 20.128906-98.738281 20.128906v-157.089844c37.050781 0 72.109375 7.148438 98.738281 20.128906 30.050781 14.652344 46.601563 35.402344 46.601563 58.410156zm0 0" fill="#7a3d06"/><path d="m169.921875 225.996094c-11.289063 0-22.292969-3.4375-31.746094-10.039063-12.191406-8.511719-20.339843-21.261719-22.941406-35.898437l29.539063-5.25c1.199218 6.746094 4.953124 12.625 10.578124 16.550781 5.621094 3.925781 12.433594 5.425781 19.183594 4.226563 6.75-1.199219 12.628906-4.957032 16.554688-10.578126 3.921875-5.621093 5.425781-12.4375 4.222656-19.1875l29.539062-5.25c5.371094 30.222657-14.84375 59.179688-45.066406 64.550782-3.292968.585937-6.589844.875-9.863281.875zm0 0" fill="#b26d3c"/><path d="m342.078125 225.996094c-3.273437 0-6.570313-.289063-9.863281-.875-30.21875-5.371094-50.4375-34.328125-45.0625-64.550782l29.535156 5.25c-1.199219 6.75.300781 13.5625 4.226562 19.1875 3.925782 5.621094 9.804688 9.375 16.554688 10.578126 6.75 1.195312 13.5625-.304688 19.183594-4.226563 5.621094-3.925781 9.378906-9.804687 10.578125-16.554687l29.535156 5.25c-2.601563 14.640624-10.75 27.390624-22.941406 35.902343-9.453125 6.601563-20.457031 10.039063-31.746094 10.039063zm0 0" fill="#7a3d06"/><path d="m152.769531 71.328125c-1.429687-17.203125-4.535156-31.789063-4.667969-32.402344l-2.949218-13.746093-13.910156 2.054687c-.617188.09375-15.367188 2.300781-31.980469 6.988281-24.847657 7.019532-40.632813 15.769532-48.25 26.757813-17.898438 25.808593-11.460938 61.367187 14.347656 79.265625 9.878906 6.851562 21.179687 10.136718 32.378906 10.136718 18.058594 0 35.839844-8.550781 46.890625-24.484374 7.613282-10.988282 10.277344-28.835938 8.140625-54.570313zm0 0" fill="#4cc4ff"/><path d="m509.929688 249.546875c-3.433594-11.929687-14.578126-24.226563-34.074219-37.605469-12.910157-8.859375-24.957031-15.046875-25.460938-15.304687l-12.519531-6.40625-7.199219 12.078125c-.289062.488281-7.203125 12.132812-13.433593 26.5-9.402344 21.691406-12.308594 38.035156-8.875 49.964844 3.902343 13.5625 12.855468 24.796874 25.207031 31.628906 7.9375 4.390625 16.667969 6.625 25.496093 6.625 4.90625 0 9.84375-.691406 14.691407-2.085938 28-8.058594 44.222656-37.394531 36.167969-65.394531zm0 0" fill="#169eff"/><path d="m471.601562 41.746094c-11.027343-11.023438-31.332031-17.824219-62.074218-20.789063-20.882813-2.015625-38.976563-1.460937-39.738282-1.4375l-14.054687.453125-.453125 14.054688c-.023438.761718-.578125 18.855468 1.4375 39.738281 2.964844 30.742187 9.765625 51.046875 20.789062 62.074219 12.972657 12.96875 30.007813 19.453125 47.046876 19.453125 17.039062 0 34.074218-6.484375 47.046874-19.453125 25.9375-25.941406 25.9375-68.152344 0-94.09375zm0 0" fill="#169eff"/><path d="m333.148438 340.671875v94.179687c0 42.539063-34.609376 77.148438-77.148438 77.148438s-77.148438-34.609375-77.148438-77.148438v-94.179687zm0 0" fill="#f95858"/><path d="m333.148438 340.671875v94.179687c0 42.539063-34.609376 77.148438-77.148438 77.148438v-171.328125zm0 0" fill="#ea1b5f"/><path d="m241 340.671875h30v70.828125h-30zm0 0" fill="#d83535"/><path d="m256 340.671875h15v70.828125h-15zm0 0" fill="#b70641"/></svg>