<svg height="512pt" viewBox="-27 0 512 512" width="512pt" xmlns="http://www.w3.org/2000/svg"><path d="m458.519531 282.738281c0 61.238281-23.847656 118.8125-67.148437 162.113281-43.300782 43.300782-100.875 67.148438-162.109375 67.148438-61.238281 0-118.8125-23.847656-162.113281-67.148438-43.300782-43.300781-67.148438-100.875-67.148438-162.113281 0-61.234375 23.847656-118.808593 67.148438-162.109375 43.300781-43.300781 100.875-67.148437 162.113281-67.148437 61.234375 0 118.808593 23.847656 162.109375 67.148437 43.300781 43.300782 67.148437 100.875 67.148437 162.109375zm0 0" fill="#ffe171"/><path d="m458.519531 282.738281c0 61.238281-23.847656 118.8125-67.148437 162.113281-43.300782 43.300782-100.875 67.148438-162.109375 67.148438v-458.519531c61.234375 0 118.808593 23.847656 162.109375 67.148437 43.300781 43.300782 67.148437 100.875 67.148437 162.109375zm0 0" fill="#ffd300"/><path d="m336.5 364.238281c-21.660156 38.910157-62.75 63.082031-107.238281 63.082031-44.492188 0-85.582031-24.171874-107.242188-63.082031l26.210938-14.597656c16.371093 29.410156 47.417969 47.679687 81.03125 47.679687 33.609375 0 64.660156-18.269531 81.027343-47.679687zm0 0" fill="#b26d3c"/><path d="m204.238281 281.746094h-30c0-12.371094-10.066406-22.4375-22.4375-22.4375-12.375 0-22.441406 10.066406-22.441406 22.4375h-30c0-28.914063 23.523437-52.4375 52.441406-52.4375 28.914063 0 52.4375 23.523437 52.4375 52.4375zm0 0" fill="#b26d3c"/><path d="m359.160156 281.746094h-30c0-12.371094-10.066406-22.4375-22.4375-22.4375-12.375 0-22.441406 10.066406-22.441406 22.4375h-30c0-28.914063 23.523438-52.4375 52.441406-52.4375 28.914063 0 52.4375 23.523437 52.4375 52.4375zm0 0" fill="#7a3d06"/><path d="m356.171875 20.730469c-34.140625-13.371094-79.210937-20.730469-126.910156-20.730469-47.703125 0-92.773438 7.359375-126.910157 20.730469-38.582031 15.097656-59.832031 36.949219-59.832031 61.507812 0 24.5625 21.25 46.402344 59.832031 61.511719 34.136719 13.371094 79.207032 20.730469 126.910157 20.730469 47.699219 0 92.769531-7.359375 126.910156-20.730469 38.578125-15.109375 59.828125-36.949219 59.828125-61.511719 0-24.558593-21.25-46.410156-59.828125-61.507812zm-10.941406 95.089843c-30.742188 12.03125-71.921875 18.660157-115.96875 18.660157-44.050781 0-85.230469-6.628907-115.972657-18.660157-25.148437-9.851562-40.769531-22.71875-40.769531-33.582031 0-10.867187 15.621094-23.726562 40.769531-33.578125 30.742188-12.03125 71.921876-18.660156 115.972657-18.660156 44.046875 0 85.226562 6.628906 115.96875 18.660156 25.148437 9.851563 40.769531 22.710938 40.769531 33.578125 0 10.863281-15.621094 23.730469-40.769531 33.582031zm0 0" fill="#4cc4ff"/><path d="m310.289062 349.640625 26.210938 14.597656c-21.660156 38.910157-62.75 63.082031-107.238281 63.082031v-30c33.609375 0 64.660156-18.269531 81.027343-47.679687zm0 0" fill="#7a3d06"/><path d="m416 82.238281c0 24.5625-21.25 46.402344-59.828125 61.511719-34.140625 13.371094-79.210937 20.730469-126.910156 20.730469v-30c44.046875 0 85.226562-6.628907 115.96875-18.660157 25.148437-9.851562 40.769531-22.71875 40.769531-33.582031 0-10.867187-15.621094-23.726562-40.769531-33.578125-30.742188-12.03125-71.921875-18.660156-115.96875-18.660156v-30c47.699219 0 92.769531 7.359375 126.910156 20.730469 38.578125 15.097656 59.828125 36.949219 59.828125 61.507812zm0 0" fill="#169eff"/></svg>