<svg height="512pt" viewBox="0 0 512 512" width="512pt" xmlns="http://www.w3.org/2000/svg"><path d="m512 256c0 68.378906-26.628906 132.671875-74.980469 181.019531-48.347656 48.351563-112.640625 74.980469-181.019531 74.980469s-132.671875-26.628906-181.019531-74.980469c-48.351563-48.347656-74.980469-112.640625-74.980469-181.019531s26.628906-132.671875 74.980469-181.019531c48.347656-48.351563 112.640625-74.980469 181.019531-74.980469s132.671875 26.628906 181.019531 74.980469c48.351563 48.347656 74.980469 112.640625 74.980469 181.019531zm0 0" fill="#ffe171"/><path d="m512 256c0 68.378906-26.628906 132.671875-74.980469 181.019531-48.347656 48.351563-112.640625 74.980469-181.019531 74.980469v-512c68.378906 0 132.671875 26.628906 181.019531 74.980469 48.351563 48.347656 74.980469 112.640625 74.980469 181.019531zm0 0" fill="#ffd300"/><path d="m367.851562 397v50.21875c0 35.722656-29.0625 64.78125-64.78125 64.78125-18.519531 0-35.25-7.808594-47.070312-20.320312-10.96875-11.601563-17.710938-27.257813-17.710938-44.460938v-50.21875h15v-12.5h99.5625v12.5zm0 0" fill="#f95858"/><path d="m149.203125 136.859375c-49.074219 0-89 39.925781-89 89 0 49.078125 39.925781 89 89 89s89-39.921875 89-89c0-49.074219-39.925781-89-89-89zm0 0" fill="#dcf3ff"/><path d="m149.203125 136.859375c-27.332031 0-49.570313 22.238281-49.570313 49.570313 0 27.332031 22.238282 49.570312 49.570313 49.570312s49.570313-22.234375 49.570313-49.570312c0-27.332032-22.238282-49.570313-49.570313-49.570313zm0 0" fill="#b26d3c"/><path d="m362.796875 314.859375c49.074219 0 89-39.921875 89-89 0-49.074219-39.925781-89-89-89s-89 39.925781-89 89c0 49.078125 39.925781 89 89 89zm0 0" fill="#b0e2fa"/><path d="m362.796875 314.859375c27.332031 0 49.570313-22.234375 49.570313-49.566406s-22.238282-49.570313-49.570313-49.570313-49.570313 22.238282-49.570313 49.570313 22.238282 49.566406 49.570313 49.566406zm0 0" fill="#7a3d06"/><path d="m367.851562 397v50.21875c0 35.722656-29.0625 64.78125-64.78125 64.78125-18.519531 0-35.25-7.808594-47.070312-20.320312v-107.179688h96.851562v12.5zm0 0" fill="#ea1b5f"/><path d="m402.671875 379.28125-54.902344 41.199219-45.890625-34.449219-45.878906 34.4375-.011719.011719-45.886719-34.449219-45.882812 34.449219-54.890625-41.210938 18.011719-23.988281 36.878906 27.6875 45.882812-34.449219 45.886719 34.449219.011719-.007812 45.878906-34.441407 45.890625 34.449219 36.890625-27.6875zm0 0" fill="#b26d3c"/><path d="m402.671875 379.28125-54.902344 41.199219-45.890625-34.449219-45.878906 34.4375v-37.507812l45.878906-34.441407 45.890625 34.449219 36.890625-27.6875zm0 0" fill="#7a3d06"/></svg>