<svg height="512pt" viewBox="0 0 512 512" width="512pt" xmlns="http://www.w3.org/2000/svg"><path d="m512 256c0 68.378906-26.628906 132.671875-74.980469 181.019531-48.347656 48.351563-112.640625 74.980469-181.019531 74.980469s-132.671875-26.628906-181.019531-74.980469c-48.351563-48.347656-74.980469-112.640625-74.980469-181.019531 0-18.570312 1.96875-36.839844 5.800781-54.570312 2.199219-10.199219 5.019531-20.210938 8.4375-30 12.511719-35.890626 33.070313-68.78125 60.742188-96.449219 48.347656-48.351563 112.640625-74.980469 181.019531-74.980469s132.671875 26.628906 181.019531 74.980469c27.671875 27.667969 48.230469 60.558593 60.742188 96.449219 3.417969 9.789062 6.238281 19.800781 8.4375 30 3.832031 17.730468 5.800781 36 5.800781 54.570312zm0 0" fill="#ffe171"/><path d="m512 256c0 68.378906-26.628906 132.671875-74.980469 181.019531-48.347656 48.351563-112.640625 74.980469-181.019531 74.980469v-512c68.378906 0 132.671875 26.628906 181.019531 74.980469 48.351563 48.347656 74.980469 112.640625 74.980469 181.019531zm0 0" fill="#ffd300"/><path d="m363.238281 354.238281c-21.660156 38.910157-62.75 63.082031-107.238281 63.082031s-85.578125-24.171874-107.238281-63.082031l26.207031-14.597656c16.371094 29.410156 47.421875 47.679687 81.03125 47.679687s64.660156-18.269531 81.03125-47.679687zm0 0" fill="#b26d3c"/><path d="m229.640625 216.425781c0 39.023438-31.632813 70.652344-70.652344 70.652344-39.023437 0-70.652343-31.628906-70.652343-70.652344 0-39.019531 31.628906-70.652343 70.652343-70.652343 39.019531 0 70.652344 31.632812 70.652344 70.652343zm0 0" fill="#4cc4ff"/><path d="m423.664062 216.425781c0 39.023438-31.628906 70.652344-70.652343 70.652344-39.019531 0-70.652344-31.628906-70.652344-70.652344 0-39.019531 31.632813-70.652343 70.652344-70.652343 39.023437 0 70.652343 31.632812 70.652343 70.652343zm0 0" fill="#169eff"/><path d="m337.03125 339.640625 26.207031 14.597656c-21.660156 38.910157-62.75 63.082031-107.238281 63.082031v-30c33.609375 0 64.660156-18.269531 81.03125-47.679687zm0 0" fill="#7a3d06"/><g fill="#b0e2fa"><path d="m506.199219 201.429688c-2.199219-10.199219-5.019531-20.210938-8.4375-30h-71.910157c-15.113281-24.378907-42.101562-40.660157-72.839843-40.660157-40.191407 0-73.980469 27.832031-83.171875 65.230469h-27.679688c-9.191406-37.398438-42.980468-65.230469-83.171875-65.230469-30.738281 0-57.726562 16.28125-72.839843 40.660157h-71.910157c-3.417969 9.789062-6.238281 19.800781-8.4375 30h68.878907c-.871094 4.871093-1.351563 9.878906-1.351563 15 0 47.230468 38.433594 85.648437 85.660156 85.648437 43.992188 0 80.320313-33.339844 85.101563-76.078125h23.820312c4.78125 42.738281 41.109375 76.078125 85.101563 76.078125 47.226562 0 85.660156-38.417969 85.660156-85.648437 0-5.121094-.480469-10.128907-1.351563-15zm-347.210938 70.648437c-30.6875 0-55.660156-24.96875-55.660156-55.648437 0-30.691407 24.972656-55.660157 55.660156-55.660157 30.683594 0 55.652344 24.96875 55.652344 55.660157 0 30.679687-24.96875 55.648437-55.652344 55.648437zm194.023438 0c-30.683594 0-55.652344-24.96875-55.652344-55.648437 0-30.691407 24.96875-55.660157 55.652344-55.660157 30.6875 0 55.660156 24.96875 55.660156 55.660157 0 30.679687-24.972656 55.648437-55.660156 55.648437zm0 0"/><path d="m506.199219 201.429688c-2.199219-10.199219-5.019531-20.210938-8.4375-30h-71.910157c-15.113281-24.378907-42.101562-40.660157-72.839843-40.660157-40.191407 0-73.980469 27.832031-83.171875 65.230469h-13.839844v30h11.910156c4.78125 42.738281 41.109375 76.078125 85.101563 76.078125 47.226562 0 85.660156-38.417969 85.660156-85.648437 0-5.121094-.480469-10.128907-1.351563-15zm-153.1875 70.648437c-30.683594 0-55.652344-24.96875-55.652344-55.648437 0-30.691407 24.96875-55.660157 55.652344-55.660157 30.6875 0 55.660156 24.96875 55.660156 55.660157 0 30.679687-24.972656 55.648437-55.660156 55.648437zm0 0"/></g></svg>