<svg height="512pt" viewBox="0 0 512 512" width="512pt" xmlns="http://www.w3.org/2000/svg"><path d="m512 256c0 68.378906-26.628906 132.671875-74.980469 181.019531-48.347656 48.351563-112.640625 74.980469-181.019531 74.980469s-132.671875-26.628906-181.019531-74.980469c-48.351563-48.347656-74.980469-112.640625-74.980469-181.019531s26.628906-132.671875 74.980469-181.019531c48.347656-48.351563 112.640625-74.980469 181.019531-74.980469s132.671875 26.628906 181.019531 74.980469c48.351563 48.347656 74.980469 112.640625 74.980469 181.019531zm0 0" fill="#ffe171"/><path d="m512 256c0 68.378906-26.628906 132.671875-74.980469 181.019531-48.347656 48.351563-112.640625 74.980469-181.019531 74.980469v-512c68.378906 0 132.671875 26.628906 181.019531 74.980469 48.351563 48.347656 74.980469 112.640625 74.980469 181.019531zm0 0" fill="#ffd300"/><g fill="#b26d3c"><path d="m429.769531 369v30h-116c-23.488281 0-44.410156-11.160156-57.769531-28.449219-13.359375 17.289063-34.28125 28.449219-57.769531 28.449219h-116v-30c23.710937 0 43-19.289062 43-43 0-40.25 32.75-73 73-73 23.488281 0 44.410156 11.160156 57.769531 28.449219 13.359375-17.289063 34.28125-28.449219 57.769531-28.449219 40.25 0 73 32.75 73 73 0 23.710938 19.289063 43 43 43zm0 0"/><path d="m233 416h46v30h-46zm0 0"/><path d="m227.53125 201.441406h-30c0-14.152344-11.515625-25.667968-25.667969-25.667968-14.152343 0-25.667969 11.515624-25.667969 25.667968h-30c0-30.695312 24.972657-55.667968 55.667969-55.667968 30.695313 0 55.667969 24.972656 55.667969 55.667968zm0 0"/></g><path d="m395.804688 201.441406h-30c0-14.152344-11.515626-25.667968-25.667969-25.667968-14.152344 0-25.667969 11.515624-25.667969 25.667968h-30c0-30.695312 24.972656-55.667968 55.667969-55.667968 30.695312 0 55.667969 24.972656 55.667969 55.667968zm0 0" fill="#7a3d06"/><path d="m256 416h23v30h-23zm0 0" fill="#7a3d06"/><path d="m429.769531 369v30h-116c-23.488281 0-44.410156-11.160156-57.769531-28.449219v-89.101562c13.359375-17.289063 34.28125-28.449219 57.769531-28.449219 40.25 0 73 32.75 73 73 0 23.710938 19.289063 43 43 43zm0 0" fill="#7a3d06"/></svg>