<svg height="512pt" viewBox="0 0 512 512" width="512pt" xmlns="http://www.w3.org/2000/svg"><path d="m512 256c0 68.378906-26.628906 132.671875-74.980469 181.019531-48.347656 48.351563-112.640625 74.980469-181.019531 74.980469s-132.671875-26.628906-181.019531-74.980469c-48.351563-48.347656-74.980469-112.640625-74.980469-181.019531s26.628906-132.671875 74.980469-181.019531c48.347656-48.351563 112.640625-74.980469 181.019531-74.980469s132.671875 26.628906 181.019531 74.980469c48.351563 48.347656 74.980469 112.640625 74.980469 181.019531zm0 0" fill="#ffe171"/><path d="m512 256c0 68.378906-26.628906 132.671875-74.980469 181.019531-48.347656 48.351563-112.640625 74.980469-181.019531 74.980469v-512c68.378906 0 132.671875 26.628906 181.019531 74.980469 48.351563 48.347656 74.980469 112.640625 74.980469 181.019531zm0 0" fill="#ffd300"/><path d="m119.671875 340.671875h272.65625v30h-272.65625zm0 0" fill="#b26d3c"/><path d="m256 340.671875h136.328125v30h-136.328125zm0 0" fill="#7a3d06"/><path d="m148.261719 311.082031h30v89.171875h-30zm0 0" fill="#b0e2fa"/><path d="m210.085938 311.082031h30v89.171875h-30zm0 0" fill="#b0e2fa"/><path d="m271.914062 311.082031h30v89.171875h-30zm0 0" fill="#73cce0"/><path d="m333.738281 311.082031h30v89.171875h-30zm0 0" fill="#73cce0"/><path d="m378.613281 325.484375-63.140625 63.144531 95.457032 105.652344 73.339843-73.335938zm0 0" fill="#169eff"/><path d="m154.984375 154.332031c-24.132813 0-43.765625 19.632813-43.765625 43.765625 0 24.132813 19.632812 43.761719 43.765625 43.761719s43.761719-19.632813 43.761719-43.761719c0-24.132812-19.632813-43.765625-43.761719-43.765625zm0 0" fill="#b26d3c"/><path d="m357.015625 154.332031c-24.132813 0-43.761719 19.632813-43.761719 43.765625 0 24.132813 19.632813 43.761719 43.761719 43.761719 24.132813 0 43.765625-19.632813 43.765625-43.761719 0-24.132812-19.632812-43.765625-43.765625-43.765625zm0 0" fill="#7a3d06"/></svg>