<svg height="512pt" viewBox="0 0 512 512" width="512pt" xmlns="http://www.w3.org/2000/svg"><path d="m512 256c0 68.378906-26.628906 132.671875-74.980469 181.019531-48.347656 48.351563-112.640625 74.980469-181.019531 74.980469s-132.671875-26.628906-181.019531-74.980469c-48.351563-48.347656-74.980469-112.640625-74.980469-181.019531s26.628906-132.671875 74.980469-181.019531c48.347656-48.351563 112.640625-74.980469 181.019531-74.980469s132.671875 26.628906 181.019531 74.980469c48.351563 48.347656 74.980469 112.640625 74.980469 181.019531zm0 0" fill="#ffe171"/><path d="m512 256c0 68.378906-26.628906 132.671875-74.980469 181.019531-48.347656 48.351563-112.640625 74.980469-181.019531 74.980469v-512c68.378906 0 132.671875 26.628906 181.019531 74.980469 48.351563 48.347656 74.980469 112.640625 74.980469 181.019531zm0 0" fill="#ffd300"/><path d="m351.328125 272.378906c0 52.5625-42.757813 95.332032-95.328125 95.332032s-95.328125-42.769532-95.328125-95.332032h30c0 36.019532 29.308594 65.332032 65.328125 65.332032s65.328125-29.3125 65.328125-65.332032zm0 0" fill="#b26d3c"/><path d="m83.449219 227.554688c-26.710938 0-48.445313 21.730468-48.445313 48.445312s21.734375 48.445312 48.445313 48.445312c26.714843 0 48.449219-21.730468 48.449219-48.445312s-21.734376-48.445312-48.449219-48.445312zm0 0" fill="#f95858"/><path d="m428.550781 227.554688c-26.714843 0-48.449219 21.730468-48.449219 48.445312s21.734376 48.445312 48.449219 48.445312c26.710938 0 48.445313-21.730468 48.445313-48.445312s-21.734375-48.445312-48.445313-48.445312zm0 0" fill="#ea1b5f"/><path d="m227.53125 208.332031h-30c0-14.152343-11.515625-25.667969-25.667969-25.667969-14.152343 0-25.667969 11.515626-25.667969 25.667969h-30c0-30.695312 24.972657-55.667969 55.667969-55.667969 30.695313 0 55.667969 24.972657 55.667969 55.667969zm0 0" fill="#b26d3c"/><g fill="#7a3d06"><path d="m395.804688 208.332031h-30c0-14.152343-11.515626-25.667969-25.667969-25.667969-14.152344 0-25.667969 11.515626-25.667969 25.667969h-30c0-30.695312 24.972656-55.667969 55.667969-55.667969 30.695312 0 55.667969 24.972657 55.667969 55.667969zm0 0"/><path d="m351.328125 272.378906c0 52.5625-42.757813 95.332032-95.328125 95.332032v-30c36.019531 0 65.328125-29.3125 65.328125-65.332032zm0 0"/></g></svg>