<svg height="512pt" viewBox="0 0 512 512" width="512pt" xmlns="http://www.w3.org/2000/svg"><path d="m437.019531 437.019531c-48.351562 48.351563-112.644531 74.980469-181.019531 74.980469s-132.667969-26.628906-181.019531-74.980469c-48.351563-48.351562-74.980469-112.644531-74.980469-181.019531s26.628906-132.667969 74.980469-181.019531c48.351562-48.351563 112.644531-74.980469 181.019531-74.980469s132.667969 26.628906 181.019531 74.980469c48.351563 48.351562 74.980469 112.644531 74.980469 181.019531s-26.628906 132.667969-74.980469 181.019531zm0 0" fill="#ffe171"/><path d="m437.019531 437.019531c-48.351562 48.351563-112.644531 74.980469-181.019531 74.980469s-132.667969-26.628906-181.019531-74.980469l362.039062-362.039062c48.351563 48.351562 74.980469 112.644531 74.980469 181.019531s-26.628906 132.667969-74.980469 181.019531zm0 0" fill="#ffd300"/><path d="m296.675781 316.066406s40.082031 87.773438 25.605469 95.3125c-61.921875 32.242188-140.226562 22.40625-192.144531-29.515625-51.921875-51.917969-61.757813-130.222656-29.515625-192.144531 7.539062-14.476562 86.464844 16.753906 86.464844 16.753906zm0 0" fill="#f95858"/><path d="m290.390625 309.777344s46.367187 94.0625 31.890625 101.601562c-61.921875 32.242188-140.226562 22.40625-192.144531-29.515625l116.167969-116.167969zm0 0" fill="#ea1b5f"/><path d="m373.082031 371.257812-10.605469 10.605469c-12.140624 12.140625-25.71875 21.972657-40.199218 29.507813l-221.648438-221.648438c7.535156-14.480468 17.367188-28.058594 29.507813-40.199218l10.605469-10.605469zm0 0" fill="#dcf3ff"/><path d="m373.082031 371.257812-10.605469 10.605469c-12.140624 12.140625-25.71875 21.972657-40.199218 29.507813l-110.824219-110.824219 45.457031-45.457031zm0 0" fill="#b0e2fa"/><path d="m387.316406 324.914062-93.816406-93.8125 136.222656-7.191406 1.582032 29.957032-68.96875 3.640624 46.191406 46.191407zm0 0" fill="#7a3d06"/><path d="m280.898438 218.5-93.8125-93.816406 21.214843-21.210938 46.191407 46.191406 3.640624-68.96875 29.957032 1.582032zm0 0" fill="#b26d3c"/></svg>