<svg height="512pt" viewBox="0 0 512 512" width="512pt" xmlns="http://www.w3.org/2000/svg"><path d="m512 256c0 68.378906-26.628906 132.671875-74.980469 181.019531-48.347656 48.351563-112.640625 74.980469-181.019531 74.980469s-132.671875-26.628906-181.019531-74.980469c-48.351563-48.347656-74.980469-112.640625-74.980469-181.019531s26.628906-132.671875 74.980469-181.019531c48.347656-48.351563 112.640625-74.980469 181.019531-74.980469s132.671875 26.628906 181.019531 74.980469c48.351563 48.347656 74.980469 112.640625 74.980469 181.019531zm0 0" fill="#ffe171"/><path d="m512 256c0 68.378906-26.628906 132.671875-74.980469 181.019531-48.347656 48.351563-112.640625 74.980469-181.019531 74.980469v-512c68.378906 0 132.671875 26.628906 181.019531 74.980469 48.351563 48.347656 74.980469 112.640625 74.980469 181.019531zm0 0" fill="#ffd300"/><path d="m340.136719 225.667969c-30.695313 0-55.667969-24.972657-55.667969-55.667969h30c0 14.152344 11.515625 25.667969 25.667969 25.667969 14.152343 0 25.667969-11.515625 25.667969-25.667969h30c0 30.695312-24.972657 55.667969-55.667969 55.667969zm0 0" fill="#7a3d06"/><path d="m171.863281 225.667969c-30.695312 0-55.667969-24.972657-55.667969-55.667969h30c0 14.152344 11.515626 25.667969 25.667969 25.667969 14.152344 0 25.667969-11.515625 25.667969-25.667969h30c0 30.695312-24.972656 55.667969-55.667969 55.667969zm0 0" fill="#b26d3c"/><path d="m268.332031 373.144531v40.511719c0 11.230469 9.105469 20.335938 20.332031 20.335938h18.335938v46.015624c0 17.664063 14.320312 31.984376 31.984375 31.984376s31.984375-14.320313 31.984375-31.984376v-106.863281zm0 0" fill="#169eff"/><path d="m396.191406 337.578125c0 31.113281-25.3125 56.421875-56.421875 56.421875h-167.539062c-31.109375 0-56.421875-25.308594-56.421875-56.421875 0-31.109375 25.3125-56.429687 56.421875-56.429687h167.539062c31.109375 0 56.421875 25.320312 56.421875 56.429687zm0 0" fill="#f95858"/><path d="m396.191406 337.578125c0 31.113281-25.3125 56.421875-56.421875 56.421875h-83.769531v-112.851562h83.769531c31.109375 0 56.421875 25.320312 56.421875 56.429687zm0 0" fill="#ea1b5f"/></svg>