<svg height="512pt" viewBox="0 0 512 512" width="512pt" xmlns="http://www.w3.org/2000/svg"><path d="m512 256c0 68.378906-26.628906 132.671875-74.980469 181.019531-48.347656 48.351563-112.640625 74.980469-181.019531 74.980469s-132.671875-26.628906-181.019531-74.980469c-48.351563-48.347656-74.980469-112.640625-74.980469-181.019531s26.628906-132.671875 74.980469-181.019531c48.347656-48.351563 112.640625-74.980469 181.019531-74.980469s132.671875 26.628906 181.019531 74.980469c48.351563 48.347656 74.980469 112.640625 74.980469 181.019531zm0 0" fill="#ffe171"/><path d="m512 256c0 68.378906-26.628906 132.671875-74.980469 181.019531-48.347656 48.351563-112.640625 74.980469-181.019531 74.980469v-512c68.378906 0 132.671875 26.628906 181.019531 74.980469 48.351563 48.347656 74.980469 112.640625 74.980469 181.019531zm0 0" fill="#ffd300"/><path d="m209.546875 186.589844c-3.792969-3.261719-8.417969-5.988282-13.871094-8.183594-5.457031-2.195312-11.574219-4.222656-18.359375-6.085938-4.925781-1.332031-9.25-2.527343-12.972656-3.59375-3.726562-1.0625-6.820312-2.226562-9.28125-3.492187-2.464844-1.261719-4.324219-2.695313-5.585938-4.292969-1.269531-1.59375-1.898437-3.589844-1.898437-5.984375 0-7.851562 5.855469-11.773437 17.5625-11.773437 4.257813 0 8.515625.597656 12.773437 1.792968 4.257813 1.199219 8.183594 2.597657 11.773438 4.191407 3.59375 1.597656 6.585938 3.128906 8.980469 4.589843 2.394531 1.464844 3.792969 2.464844 4.191406 2.996094l14.367187-27.144531c-3.191406-1.859375-6.683593-3.722656-10.476562-5.585937-3.792969-1.863282-7.882812-3.523438-12.273438-4.988282-4.390624-1.464844-8.980468-2.660156-13.769531-3.59375-.066406-.011718-.132812-.019531-.195312-.03125v-25.570312h-30v25.984375c-1.496094.351562-2.972657.753906-4.429688 1.214843-6.320312 1.996094-11.875 4.957032-16.667969 8.878907-4.785156 3.925781-8.578124 8.75-11.375 14.46875-2.792968 5.722656-4.1875 12.308593-4.1875 19.757812 0 5.324219.761719 9.980469 2.292969 13.96875 1.527344 3.992188 3.859375 7.519531 6.984375 10.578125 3.125 3.0625 7.085938 5.757813 11.875 8.082032 4.789063 2.332031 10.441406 4.492187 16.964844 6.488281 4.921875 1.464843 9.476562 2.792969 13.671875 3.992187 4.191406 1.195313 7.8125 2.492188 10.875 3.890625 3.058594 1.398438 5.453125 2.960938 7.183594 4.691407 1.730469 1.730468 2.597656 3.925781 2.597656 6.585937 0 7.050781-5.789063 10.574219-17.363281 10.574219-5.457032 0-10.847656-.726563-16.164063-2.191406-5.324219-1.464844-10.148437-3.125-14.46875-4.992188-4.328125-1.859375-7.953125-3.722656-10.878906-5.585938-2.929687-1.863281-4.660156-3.125-5.1875-3.792968l-14.371094 28.539062c4.125 2.792969 8.613281 5.257813 13.472657 7.382813 4.855468 2.132812 9.878906 3.960937 15.066406 5.488281 4.597656 1.355469 9.304687 2.410156 14.109375 3.1875v26.867188h30v-26.21875c2.558593-.367188 5.085937-.84375 7.582031-1.441407 6.382812-1.527343 12.039062-3.992187 16.960938-7.382812 4.921874-3.394531 8.882812-7.847657 11.875-13.371094 2.992187-5.519531 4.492187-12.273437 4.492187-20.257813 0-6.515624-1.035156-12.105468-3.097656-16.761718s-4.988281-8.613282-8.777344-11.875zm0 0" fill="#8cdc53"/><path d="m399.050781 198.464844c-2.0625-4.65625-4.988281-8.613282-8.78125-11.875-3.792969-3.261719-8.414062-5.988282-13.871093-8.183594-5.457032-2.195312-11.574219-4.222656-18.359376-6.085938-4.921874-1.332031-9.25-2.527343-12.972656-3.59375-3.726562-1.0625-6.820312-2.226562-9.277344-3.492187-2.464843-1.261719-4.324218-2.695313-5.589843-4.292969-1.265625-1.59375-1.894531-3.589844-1.894531-5.984375 0-7.851562 5.851562-11.773437 17.5625-11.773437 4.257812 0 8.511718.597656 12.773437 1.792968 4.253906 1.199219 8.179687 2.597657 11.773437 4.191407 3.59375 1.597656 6.585938 3.128906 8.980469 4.589843 2.394531 1.464844 3.792969 2.464844 4.191407 2.996094l14.367187-27.144531c-3.191406-1.859375-6.6875-3.722656-10.476563-5.585937-3.792968-1.863282-7.882812-3.523438-12.273437-4.988282s-8.980469-2.660156-13.773437-3.59375c-.0625-.011718-.128907-.019531-.191407-.03125v-25.570312h-30v25.984375c-1.496093.351562-2.976562.753906-4.433593 1.214843-6.320313 1.996094-11.875 4.957032-16.664063 8.878907-4.789063 3.925781-8.582031 8.75-11.375 14.46875-2.792969 5.722656-4.191406 12.308593-4.191406 19.757812 0 5.324219.765625 9.980469 2.296875 13.96875 1.527344 3.992188 3.855468 7.519531 6.984375 10.578125 3.125 3.0625 7.085937 5.757813 11.875 8.082032 4.789062 2.332031 10.441406 4.492187 16.960937 6.488281 4.921875 1.464843 9.480469 2.792969 13.671875 3.992187 4.191407 1.195313 7.816407 2.492188 10.878907 3.890625 3.058593 1.398438 5.453124 2.960938 7.183593 4.691407 1.726563 1.730468 2.59375 3.925781 2.59375 6.585937 0 7.050781-5.785156 10.574219-17.363281 10.574219-5.457031 0-10.84375-.726563-16.164062-2.191406-5.320313-1.464844-10.144532-3.125-14.46875-4.992188-4.324219-1.859375-7.953126-3.722656-10.875-5.585938-2.929688-1.863281-4.660157-3.125-5.191407-3.792968l-14.367187 28.539062c4.121094 2.792969 8.613281 5.257813 13.472656 7.382813 4.851562 2.132812 9.878906 3.960937 15.066406 5.488281 4.597656 1.355469 9.300782 2.410156 14.109375 3.1875v26.867188h30v-26.21875c2.554688-.367188 5.082031-.84375 7.578125-1.441407 6.386719-1.527343 12.039063-3.992187 16.964844-7.382812 4.917969-3.394531 8.878906-7.847657 11.875-13.371094 2.992188-5.519531 4.488281-12.273437 4.488281-20.257813 0-6.515624-1.03125-12.105468-3.09375-16.761718zm0 0" fill="#5dc379"/><path d="m405.710938 280.46875v15c0 46.929688-21.710938 88.890625-55.609376 116.359375-25.730468 20.851563-58.480468-44.367187-94.101562-44.367187-35.5 0-68.148438 65.300781-93.839844 44.578124-34.050781-27.46875-55.871094-69.519531-55.871094-116.570312v-15zm0 0" fill="#b26d3c"/><path d="m405.710938 280.46875v15c0 46.929688-21.710938 88.890625-55.609376 116.359375-25.730468 20.851563-58.480468-44.367187-94.101562-44.367187v-86.992188zm0 0" fill="#7a3d06"/><path d="m350.101562 411.828125c-25.730468 20.851563-58.480468 33.351563-94.101562 33.351563-35.5 0-68.148438-12.417969-93.839844-33.140626 2.808594-7.089843 7.378906-16.449218 14.5-25.898437 13.167969-17.480469 37.628906-38.3125 79.339844-38.3125 41.648438 0 66.101562 20.511719 79.269531 37.722656 7.378907 9.640625 12.03125 19.1875 14.832031 26.277344zm0 0" fill="#f95858"/><path d="m350.101562 411.828125c-25.730468 20.851563-58.480468 33.351563-94.101562 33.351563v-97.351563c41.648438 0 66.101562 20.511719 79.269531 37.722656 7.378907 9.640625 12.03125 19.1875 14.832031 26.277344zm0 0" fill="#ea1b5f"/></svg>