<svg height="512pt" viewBox="0 0 512 512" width="512pt" xmlns="http://www.w3.org/2000/svg"><path d="m512 256c0 68.378906-26.628906 132.671875-74.980469 181.019531-48.347656 48.351563-112.640625 74.980469-181.019531 74.980469s-132.671875-26.628906-181.019531-74.980469c-48.351563-48.347656-74.980469-112.640625-74.980469-181.019531s26.628906-132.671875 74.980469-181.019531c48.347656-48.351563 112.640625-74.980469 181.019531-74.980469s132.671875 26.628906 181.019531 74.980469c48.351563 48.347656 74.980469 112.640625 74.980469 181.019531zm0 0" fill="#ffe171"/><path d="m512 256c0 68.378906-26.628906 132.671875-74.980469 181.019531-48.347656 48.351563-112.640625 74.980469-181.019531 74.980469v-512c68.378906 0 132.671875 26.628906 181.019531 74.980469 48.351563 48.347656 74.980469 112.640625 74.980469 181.019531zm0 0" fill="#ffd300"/><path d="m235 233h-30v-32h-113v-30h143zm0 0" fill="#b26d3c"/><path d="m416 233h-30v-32h-113v-30h143zm0 0" fill="#7a3d06"/><path d="m380.589844 313.578125-34.089844 58.441406h-190.5v-30h173.269531l25.410157-43.558593zm0 0" fill="#b26d3c"/><path d="m380.589844 313.578125-34.089844 58.441406h-90.5v-30h73.269531l25.410157-43.558593zm0 0" fill="#7a3d06"/></svg>